<mxfile host="app.diagrams.net" modified="2024-05-15T08:05:04.256Z" agent="Mozilla/5.0 (X11; Linux x86_64) AppleWebKit/537.36 (KHTML, like Gecko) Chrome/124.0.0.0 Safari/537.36" etag="cIe80cTO3wTNARSMOBSP" version="24.4.0" type="github">
  <diagram id="RuqTnQ1H_JB3FCoXVHpX" name="Page-1">
    <mxGraphModel dx="2754" dy="1084" grid="1" gridSize="10" guides="1" tooltips="1" connect="1" arrows="1" fold="1" page="1" pageScale="1" pageWidth="827" pageHeight="1169" math="0" shadow="0">
      <root>
        <mxCell id="0" />
        <mxCell id="1" parent="0" />
        <mxCell id="j5Hl7yLdK-W7YZ3FVJws-7" style="rounded=0;orthogonalLoop=1;jettySize=auto;html=1;" parent="1" source="j5Hl7yLdK-W7YZ3FVJws-2" edge="1">
          <mxGeometry relative="1" as="geometry">
            <mxPoint x="-117.94427190999932" y="96.88854381999863" as="targetPoint" />
          </mxGeometry>
        </mxCell>
        <mxCell id="j5Hl7yLdK-W7YZ3FVJws-8" value="Conception du signal" style="edgeLabel;html=1;align=center;verticalAlign=middle;resizable=0;points=[];rotation=297;labelBackgroundColor=none;" parent="j5Hl7yLdK-W7YZ3FVJws-7" vertex="1" connectable="0">
          <mxGeometry x="-0.5212" y="-1" relative="1" as="geometry">
            <mxPoint x="16" y="-69" as="offset" />
          </mxGeometry>
        </mxCell>
        <mxCell id="j5Hl7yLdK-W7YZ3FVJws-12" style="edgeStyle=none;rounded=0;orthogonalLoop=1;jettySize=auto;html=1;" parent="1" source="j5Hl7yLdK-W7YZ3FVJws-2" target="j5Hl7yLdK-W7YZ3FVJws-4" edge="1">
          <mxGeometry relative="1" as="geometry" />
        </mxCell>
        <mxCell id="j5Hl7yLdK-W7YZ3FVJws-15" value="Conception du filtre" style="edgeLabel;html=1;align=center;verticalAlign=middle;resizable=0;points=[];rotation=326;labelBackgroundColor=none;labelBorderColor=none;horizontal=1;" parent="j5Hl7yLdK-W7YZ3FVJws-12" vertex="1" connectable="0">
          <mxGeometry x="-0.2049" y="1" relative="1" as="geometry">
            <mxPoint x="10" y="-15" as="offset" />
          </mxGeometry>
        </mxCell>
        <mxCell id="j5Hl7yLdK-W7YZ3FVJws-13" style="edgeStyle=none;rounded=0;orthogonalLoop=1;jettySize=auto;html=1;" parent="1" source="j5Hl7yLdK-W7YZ3FVJws-2" target="j5Hl7yLdK-W7YZ3FVJws-5" edge="1">
          <mxGeometry relative="1" as="geometry" />
        </mxCell>
        <mxCell id="j5Hl7yLdK-W7YZ3FVJws-16" value="Conception de l&#39;ADSR" style="edgeLabel;html=1;align=center;verticalAlign=middle;resizable=0;points=[];rotation=34;labelBackgroundColor=none;" parent="j5Hl7yLdK-W7YZ3FVJws-13" vertex="1" connectable="0">
          <mxGeometry x="-0.2793" y="-1" relative="1" as="geometry">
            <mxPoint x="23" y="-3" as="offset" />
          </mxGeometry>
        </mxCell>
        <mxCell id="j5Hl7yLdK-W7YZ3FVJws-14" style="edgeStyle=none;rounded=0;orthogonalLoop=1;jettySize=auto;html=1;" parent="1" source="j5Hl7yLdK-W7YZ3FVJws-2" target="j5Hl7yLdK-W7YZ3FVJws-6" edge="1">
          <mxGeometry relative="1" as="geometry" />
        </mxCell>
        <mxCell id="j5Hl7yLdK-W7YZ3FVJws-17" value="Conception de l&#39;affichage" style="edgeLabel;html=1;align=center;verticalAlign=middle;resizable=0;points=[];rotation=63;labelBackgroundColor=none;" parent="j5Hl7yLdK-W7YZ3FVJws-14" vertex="1" connectable="0">
          <mxGeometry x="0.2238" y="2" relative="1" as="geometry">
            <mxPoint y="-12" as="offset" />
          </mxGeometry>
        </mxCell>
        <mxCell id="Y-QRZM3hL4Zqh9_3_NWa-11" value="Création de la Modulation de l&#39;OSC (LFO)" style="edgeLabel;html=1;align=center;verticalAlign=middle;resizable=0;points=[];rotation=75;labelBackgroundColor=none;" vertex="1" connectable="0" parent="j5Hl7yLdK-W7YZ3FVJws-14">
          <mxGeometry x="0.2238" y="2" relative="1" as="geometry">
            <mxPoint x="-68" y="-21" as="offset" />
          </mxGeometry>
        </mxCell>
        <mxCell id="Y-QRZM3hL4Zqh9_3_NWa-13" style="rounded=0;orthogonalLoop=1;jettySize=auto;html=1;exitX=0.5;exitY=1;exitDx=0;exitDy=0;" edge="1" parent="1" source="j5Hl7yLdK-W7YZ3FVJws-2" target="Y-QRZM3hL4Zqh9_3_NWa-12">
          <mxGeometry relative="1" as="geometry" />
        </mxCell>
        <mxCell id="j5Hl7yLdK-W7YZ3FVJws-2" value="2" style="ellipse;whiteSpace=wrap;html=1;aspect=fixed;" parent="1" vertex="1">
          <mxGeometry x="-249" y="299" width="40" height="40" as="geometry" />
        </mxCell>
        <mxCell id="Y-QRZM3hL4Zqh9_3_NWa-2" style="edgeStyle=orthogonalEdgeStyle;rounded=0;orthogonalLoop=1;jettySize=auto;html=1;exitX=1;exitY=0.5;exitDx=0;exitDy=0;entryX=0;entryY=0.5;entryDx=0;entryDy=0;" edge="1" parent="1">
          <mxGeometry relative="1" as="geometry">
            <mxPoint x="-89" y="79" as="sourcePoint" />
            <mxPoint x="151" y="79" as="targetPoint" />
          </mxGeometry>
        </mxCell>
        <mxCell id="Y-QRZM3hL4Zqh9_3_NWa-17" style="edgeStyle=orthogonalEdgeStyle;rounded=0;orthogonalLoop=1;jettySize=auto;html=1;exitX=0;exitY=0.5;exitDx=0;exitDy=0;entryX=0;entryY=0.5;entryDx=0;entryDy=0;dashed=1;" edge="1" parent="1" source="j5Hl7yLdK-W7YZ3FVJws-3" target="Y-QRZM3hL4Zqh9_3_NWa-12">
          <mxGeometry relative="1" as="geometry">
            <mxPoint x="-510" y="550" as="targetPoint" />
            <Array as="points">
              <mxPoint x="-530" y="89" />
              <mxPoint x="-530" y="569" />
            </Array>
          </mxGeometry>
        </mxCell>
        <mxCell id="j5Hl7yLdK-W7YZ3FVJws-3" value="3" style="ellipse;whiteSpace=wrap;html=1;aspect=fixed;" parent="1" vertex="1">
          <mxGeometry x="-120" y="69" width="40" height="40" as="geometry" />
        </mxCell>
        <mxCell id="Y-QRZM3hL4Zqh9_3_NWa-9" style="rounded=0;orthogonalLoop=1;jettySize=auto;html=1;" edge="1" parent="1" source="j5Hl7yLdK-W7YZ3FVJws-4" target="Y-QRZM3hL4Zqh9_3_NWa-5">
          <mxGeometry relative="1" as="geometry" />
        </mxCell>
        <mxCell id="j5Hl7yLdK-W7YZ3FVJws-4" value="4" style="ellipse;whiteSpace=wrap;html=1;aspect=fixed;" parent="1" vertex="1">
          <mxGeometry x="-129" y="219" width="40" height="40" as="geometry" />
        </mxCell>
        <mxCell id="Y-QRZM3hL4Zqh9_3_NWa-10" style="rounded=0;orthogonalLoop=1;jettySize=auto;html=1;" edge="1" parent="1" source="j5Hl7yLdK-W7YZ3FVJws-5" target="Y-QRZM3hL4Zqh9_3_NWa-5">
          <mxGeometry relative="1" as="geometry" />
        </mxCell>
        <mxCell id="j5Hl7yLdK-W7YZ3FVJws-5" value="5" style="ellipse;whiteSpace=wrap;html=1;aspect=fixed;" parent="1" vertex="1">
          <mxGeometry x="-129" y="379" width="40" height="40" as="geometry" />
        </mxCell>
        <mxCell id="j5Hl7yLdK-W7YZ3FVJws-19" style="edgeStyle=none;rounded=0;orthogonalLoop=1;jettySize=auto;html=1;" parent="1" source="j5Hl7yLdK-W7YZ3FVJws-6" target="j5Hl7yLdK-W7YZ3FVJws-18" edge="1">
          <mxGeometry relative="1" as="geometry" />
        </mxCell>
        <mxCell id="j5Hl7yLdK-W7YZ3FVJws-20" value="Récupérer le signal" style="edgeLabel;align=center;verticalAlign=middle;resizable=0;points=[];labelBackgroundColor=none;html=1;" parent="j5Hl7yLdK-W7YZ3FVJws-19" vertex="1" connectable="0">
          <mxGeometry x="-0.1857" y="1" relative="1" as="geometry">
            <mxPoint x="20" y="-9" as="offset" />
          </mxGeometry>
        </mxCell>
        <mxCell id="j5Hl7yLdK-W7YZ3FVJws-22" style="edgeStyle=none;rounded=0;orthogonalLoop=1;jettySize=auto;html=1;" parent="1" source="j5Hl7yLdK-W7YZ3FVJws-6" target="j5Hl7yLdK-W7YZ3FVJws-21" edge="1">
          <mxGeometry relative="1" as="geometry" />
        </mxCell>
        <mxCell id="j5Hl7yLdK-W7YZ3FVJws-23" value="Créer une fenêtre d&#39;affichage" style="edgeLabel;html=1;align=center;verticalAlign=middle;resizable=0;points=[];rotation=50;labelBackgroundColor=none;" parent="j5Hl7yLdK-W7YZ3FVJws-22" vertex="1" connectable="0">
          <mxGeometry x="0.4634" relative="1" as="geometry">
            <mxPoint x="-38" y="-59" as="offset" />
          </mxGeometry>
        </mxCell>
        <mxCell id="j5Hl7yLdK-W7YZ3FVJws-6" value="6" style="ellipse;whiteSpace=wrap;html=1;aspect=fixed;" parent="1" vertex="1">
          <mxGeometry x="-129" y="539" width="40" height="40" as="geometry" />
        </mxCell>
        <mxCell id="j5Hl7yLdK-W7YZ3FVJws-10" style="edgeStyle=none;rounded=0;orthogonalLoop=1;jettySize=auto;html=1;entryX=0;entryY=0.5;entryDx=0;entryDy=0;" parent="1" source="j5Hl7yLdK-W7YZ3FVJws-9" target="j5Hl7yLdK-W7YZ3FVJws-2" edge="1">
          <mxGeometry relative="1" as="geometry" />
        </mxCell>
        <mxCell id="j5Hl7yLdK-W7YZ3FVJws-11" value="Répartition des tâches" style="edgeLabel;html=1;align=center;verticalAlign=middle;resizable=0;points=[];" parent="j5Hl7yLdK-W7YZ3FVJws-10" vertex="1" connectable="0">
          <mxGeometry x="-0.359" y="1" relative="1" as="geometry">
            <mxPoint x="26" y="-9" as="offset" />
          </mxGeometry>
        </mxCell>
        <mxCell id="j5Hl7yLdK-W7YZ3FVJws-9" value="1" style="ellipse;whiteSpace=wrap;html=1;aspect=fixed;" parent="1" vertex="1">
          <mxGeometry x="-489" y="299" width="40" height="40" as="geometry" />
        </mxCell>
        <mxCell id="j5Hl7yLdK-W7YZ3FVJws-25" style="edgeStyle=none;rounded=0;orthogonalLoop=1;jettySize=auto;html=1;" parent="1" source="j5Hl7yLdK-W7YZ3FVJws-18" target="j5Hl7yLdK-W7YZ3FVJws-24" edge="1">
          <mxGeometry relative="1" as="geometry" />
        </mxCell>
        <mxCell id="j5Hl7yLdK-W7YZ3FVJws-26" value="Afficher le signal" style="edgeLabel;html=1;align=center;verticalAlign=middle;resizable=0;points=[];rotation=71;labelBackgroundColor=none;" parent="j5Hl7yLdK-W7YZ3FVJws-25" vertex="1" connectable="0">
          <mxGeometry x="-0.2226" relative="1" as="geometry">
            <mxPoint x="11" y="4" as="offset" />
          </mxGeometry>
        </mxCell>
        <mxCell id="j5Hl7yLdK-W7YZ3FVJws-29" style="edgeStyle=none;rounded=0;orthogonalLoop=1;jettySize=auto;html=1;" parent="1" source="j5Hl7yLdK-W7YZ3FVJws-18" target="j5Hl7yLdK-W7YZ3FVJws-28" edge="1">
          <mxGeometry relative="1" as="geometry" />
        </mxCell>
        <mxCell id="j5Hl7yLdK-W7YZ3FVJws-30" value="Appliquer l&#39;algorithme de fft au signal" style="edgeLabel;html=1;align=center;verticalAlign=middle;resizable=0;points=[];labelBackgroundColor=none;" parent="j5Hl7yLdK-W7YZ3FVJws-29" vertex="1" connectable="0">
          <mxGeometry x="0.2286" y="-1" relative="1" as="geometry">
            <mxPoint x="-23" y="-11" as="offset" />
          </mxGeometry>
        </mxCell>
        <mxCell id="j5Hl7yLdK-W7YZ3FVJws-18" value="6.1" style="ellipse;whiteSpace=wrap;html=1;aspect=fixed;" parent="1" vertex="1">
          <mxGeometry x="71" y="539" width="40" height="40" as="geometry" />
        </mxCell>
        <mxCell id="j5Hl7yLdK-W7YZ3FVJws-27" style="edgeStyle=none;rounded=0;orthogonalLoop=1;jettySize=auto;html=1;dashed=1;" parent="1" source="j5Hl7yLdK-W7YZ3FVJws-21" target="j5Hl7yLdK-W7YZ3FVJws-24" edge="1">
          <mxGeometry relative="1" as="geometry" />
        </mxCell>
        <mxCell id="j5Hl7yLdK-W7YZ3FVJws-33" style="edgeStyle=none;rounded=0;orthogonalLoop=1;jettySize=auto;html=1;dashed=1;" parent="1" source="j5Hl7yLdK-W7YZ3FVJws-21" target="j5Hl7yLdK-W7YZ3FVJws-31" edge="1">
          <mxGeometry relative="1" as="geometry" />
        </mxCell>
        <mxCell id="j5Hl7yLdK-W7YZ3FVJws-21" value="6.2" style="ellipse;whiteSpace=wrap;html=1;aspect=fixed;" parent="1" vertex="1">
          <mxGeometry x="71" y="779" width="40" height="40" as="geometry" />
        </mxCell>
        <mxCell id="j5Hl7yLdK-W7YZ3FVJws-24" value="6.3" style="ellipse;whiteSpace=wrap;html=1;aspect=fixed;" parent="1" vertex="1">
          <mxGeometry x="111" y="659" width="40" height="40" as="geometry" />
        </mxCell>
        <mxCell id="j5Hl7yLdK-W7YZ3FVJws-32" style="edgeStyle=none;rounded=0;orthogonalLoop=1;jettySize=auto;html=1;" parent="1" source="j5Hl7yLdK-W7YZ3FVJws-28" target="j5Hl7yLdK-W7YZ3FVJws-31" edge="1">
          <mxGeometry relative="1" as="geometry" />
        </mxCell>
        <mxCell id="j5Hl7yLdK-W7YZ3FVJws-34" value="Afficher le spectre du signal" style="edgeLabel;html=1;align=center;verticalAlign=middle;resizable=0;points=[];rotation=90;labelBackgroundColor=none;" parent="j5Hl7yLdK-W7YZ3FVJws-32" vertex="1" connectable="0">
          <mxGeometry x="0.14" y="-1" relative="1" as="geometry">
            <mxPoint x="11" y="-14" as="offset" />
          </mxGeometry>
        </mxCell>
        <mxCell id="j5Hl7yLdK-W7YZ3FVJws-28" value="6.4" style="ellipse;whiteSpace=wrap;html=1;aspect=fixed;" parent="1" vertex="1">
          <mxGeometry x="311" y="539" width="40" height="40" as="geometry" />
        </mxCell>
        <mxCell id="j5Hl7yLdK-W7YZ3FVJws-31" value="6.5" style="ellipse;whiteSpace=wrap;html=1;aspect=fixed;" parent="1" vertex="1">
          <mxGeometry x="311" y="779" width="40" height="40" as="geometry" />
        </mxCell>
        <mxCell id="Y-QRZM3hL4Zqh9_3_NWa-6" style="edgeStyle=orthogonalEdgeStyle;rounded=0;orthogonalLoop=1;jettySize=auto;html=1;exitX=1;exitY=0.5;exitDx=0;exitDy=0;entryX=0;entryY=0.5;entryDx=0;entryDy=0;" edge="1" parent="1">
          <mxGeometry relative="1" as="geometry">
            <mxPoint x="191" y="79" as="sourcePoint" />
            <mxPoint x="461.0000000000409" y="79" as="targetPoint" />
          </mxGeometry>
        </mxCell>
        <mxCell id="Y-QRZM3hL4Zqh9_3_NWa-1" value="3.1" style="ellipse;whiteSpace=wrap;html=1;aspect=fixed;" vertex="1" parent="1">
          <mxGeometry x="151" y="60" width="40" height="40" as="geometry" />
        </mxCell>
        <mxCell id="Y-QRZM3hL4Zqh9_3_NWa-3" value="Créer les fonctions pour chaque &quot;waveform&quot;" style="text;html=1;align=center;verticalAlign=middle;resizable=0;points=[];autosize=1;strokeColor=none;fillColor=none;" vertex="1" parent="1">
          <mxGeometry x="-99" y="79" width="260" height="30" as="geometry" />
        </mxCell>
        <mxCell id="Y-QRZM3hL4Zqh9_3_NWa-4" value="Rassembler chaque étage de soustraction du signal" style="text;html=1;align=center;verticalAlign=middle;resizable=0;points=[];autosize=1;strokeColor=none;fillColor=none;" vertex="1" parent="1">
          <mxGeometry x="171" y="39" width="300" height="30" as="geometry" />
        </mxCell>
        <mxCell id="Y-QRZM3hL4Zqh9_3_NWa-5" value="10" style="ellipse;whiteSpace=wrap;html=1;aspect=fixed;" vertex="1" parent="1">
          <mxGeometry x="460" y="60" width="40" height="40" as="geometry" />
        </mxCell>
        <mxCell id="Y-QRZM3hL4Zqh9_3_NWa-18" style="edgeStyle=orthogonalEdgeStyle;rounded=0;orthogonalLoop=1;jettySize=auto;html=1;entryX=0.5;entryY=1;entryDx=0;entryDy=0;" edge="1" parent="1" source="Y-QRZM3hL4Zqh9_3_NWa-12" target="Y-QRZM3hL4Zqh9_3_NWa-5">
          <mxGeometry relative="1" as="geometry">
            <mxPoint x="-177" y="870" as="targetPoint" />
            <Array as="points">
              <mxPoint x="-177" y="850" />
              <mxPoint x="480" y="850" />
            </Array>
          </mxGeometry>
        </mxCell>
        <mxCell id="Y-QRZM3hL4Zqh9_3_NWa-12" value="7" style="ellipse;whiteSpace=wrap;html=1;aspect=fixed;" vertex="1" parent="1">
          <mxGeometry x="-197" y="549" width="40" height="40" as="geometry" />
        </mxCell>
      </root>
    </mxGraphModel>
  </diagram>
</mxfile>
